<svg width="50" height="50" viewBox="0 0 50 50" fill="none" xmlns="http://www.w3.org/2000/svg">
<rect width="50" height="50" rx="25" fill="#F5F5F5"/>
<path fill-rule="evenodd" clip-rule="evenodd" d="M25.0001 10.6666C24.1938 10.6666 23.4513 10.867 22.6385 11.2032C21.8535 11.5278 20.9418 12.0062 19.8066 12.602L17.0499 14.0486C15.6566 14.7798 14.5416 15.3649 13.6807 15.9398C12.7888 16.5355 12.1018 17.1626 11.6016 18.0122C11.103 18.8589 10.8787 19.7757 10.7711 20.8676C10.6667 21.9274 10.6667 23.2308 10.6667 24.87V25.1299C10.6667 26.7691 10.6667 28.0725 10.7711 29.1323C10.8787 30.2242 11.103 31.141 11.6016 31.9877C12.1018 32.8373 12.7888 33.4644 13.6807 34.0601C14.5416 34.635 15.6565 35.2201 17.0497 35.9512L19.8066 37.3979C20.9418 37.9936 21.8535 38.4721 22.6385 38.7967C23.4513 39.1329 24.1938 39.3333 25.0001 39.3333C25.8064 39.3333 26.5488 39.1329 27.3617 38.7967C28.1466 38.4721 29.0583 37.9937 30.1935 37.3979L32.9502 35.9513C34.3435 35.2201 35.4585 34.635 36.3195 34.0601C37.2114 33.4644 37.8983 32.8373 38.3986 31.9877C38.8972 31.141 39.1215 30.2242 39.229 29.1323C39.3334 28.0725 39.3334 26.7691 39.3334 25.1299V24.87C39.3334 23.2308 39.3334 21.9274 39.229 20.8676C39.1215 19.7757 38.8972 18.8589 38.3986 18.0122C37.8983 17.1626 37.2114 16.5355 36.3195 15.9398C35.4585 15.3649 34.3435 14.7798 32.9502 14.0486L30.1936 12.602C29.0583 12.0062 28.1467 11.5278 27.3617 11.2032C26.5488 10.867 25.8064 10.6666 25.0001 10.6666ZM20.6945 14.3947C21.8808 13.7722 22.7121 13.337 23.4028 13.0514C24.0751 12.7733 24.5474 12.6666 25.0001 12.6666C25.4528 12.6666 25.9251 12.7733 26.5974 13.0514C27.2881 13.337 28.1194 13.7722 29.3057 14.3947L31.9723 15.7941C33.4253 16.5566 34.446 17.0937 35.2087 17.6031C35.585 17.8543 35.8807 18.0877 36.1194 18.3223L25.0001 23.8819L13.8808 18.3223C14.1195 18.0877 14.4152 17.8543 14.7914 17.6031C15.5541 17.0937 16.5749 16.5566 18.0278 15.7941L20.6945 14.3947ZM12.917 20.0764C12.8497 20.3616 12.7988 20.6855 12.7615 21.0637C12.6679 22.0141 12.6667 23.2192 12.6667 24.922V25.0779C12.6667 26.7807 12.6679 27.9858 12.7615 28.9363C12.8531 29.8658 13.027 30.4669 13.325 30.9729C13.6212 31.476 14.0498 31.9016 14.7914 32.3969C15.5541 32.9062 16.5749 33.4433 18.0278 34.2058L20.6945 35.6052C21.8808 36.2277 22.7121 36.6629 23.4028 36.9485C23.6209 37.0387 23.8179 37.1109 24.0001 37.1672V25.618L12.917 20.0764ZM26.0001 37.1672C26.1822 37.1109 26.3793 37.0387 26.5974 36.9485C27.2881 36.6629 28.1194 36.2277 29.3057 35.6052L31.9723 34.2058C33.4253 33.4433 34.446 32.9062 35.2087 32.3969C35.9504 31.9016 36.3789 31.476 36.6752 30.9729C36.9731 30.4669 37.1471 29.8658 37.2387 28.9363C37.3323 27.9858 37.3334 26.7807 37.3334 25.0779V24.922C37.3334 23.2192 37.3323 22.0141 37.2387 21.0637C37.2014 20.6855 37.1505 20.3616 37.0832 20.0764L26.0001 25.618V37.1672Z" fill="black"/>
</svg>
