<svg width="112" height="108" viewBox="0 0 112 108" fill="none" xmlns="http://www.w3.org/2000/svg">
<path d="M56.0022 0C25.4658 0 0.702637 24.7542 0.702637 55.2951C0.702637 79.7296 16.5482 100.456 38.5179 107.766C41.2802 108.277 42.2972 106.567 42.2972 105.106C42.2972 103.787 42.2439 99.43 42.2217 94.8113C26.838 98.1554 23.5917 88.2875 23.5917 88.2875C21.078 81.8969 17.4497 80.1959 17.4497 80.1959C12.4314 76.763 17.8272 76.8341 17.8272 76.8341C23.3785 77.2249 26.3051 82.5319 26.3051 82.5319C31.2391 90.9876 39.2418 88.5406 42.3949 87.1284C42.8923 83.5534 44.3223 81.1152 45.9078 79.7341C33.6239 78.3352 20.7139 73.5921 20.7139 52.404C20.7139 46.3687 22.8722 41.4347 26.4117 37.5621C25.8388 36.1721 23.9469 30.5498 26.9491 22.9334C26.9491 22.9334 31.5944 21.4457 42.1596 28.6002C46.5695 27.3744 51.2992 26.7616 56.0022 26.7394C60.7008 26.7616 65.4349 27.3744 69.8538 28.6002C80.4101 21.4457 85.0465 22.9334 85.0465 22.9334C88.0575 30.5498 86.1612 36.1766 85.5883 37.5666C89.1322 41.4392 91.2772 46.3731 91.2772 52.4085C91.2772 73.6454 78.3406 78.3263 66.0256 79.6941C68.0107 81.4083 69.7783 84.7746 69.7783 89.9351C69.7783 97.3338 69.7161 103.289 69.7161 105.11C69.7161 106.58 70.7109 108.308 73.5132 107.761C95.474 100.443 111.297 79.7207 111.297 55.2951C111.297 24.7542 86.5387 0 56.0022 0Z" fill="white"/>
</svg>
