<svg width="17" height="18" viewBox="0 0 17 18" fill="none" xmlns="http://www.w3.org/2000/svg">
<path fill-rule="evenodd" clip-rule="evenodd" d="M16.66 9.19323C16.66 8.5905 16.6059 8.01095 16.5055 7.45459H8.5V10.7425H13.0746C12.8775 11.8051 12.2786 12.7053 11.3784 13.308V15.4407H14.1255C15.7327 13.961 16.66 11.7819 16.66 9.19323Z" fill="#4285F4"/>
<path fill-rule="evenodd" clip-rule="evenodd" d="M8.50022 17.5C10.7952 17.5 12.7193 16.7389 14.1257 15.4407L11.3786 13.3079C10.6175 13.8179 9.64386 14.1193 8.50022 14.1193C6.28635 14.1193 4.41248 12.6241 3.74407 10.615H0.904297V12.8173C2.30294 15.5952 5.17749 17.5 8.50022 17.5Z" fill="#34A853"/>
<path fill-rule="evenodd" clip-rule="evenodd" d="M3.74387 10.6151C3.57387 10.1051 3.47728 9.56031 3.47728 9.00008C3.47728 8.43985 3.57387 7.89508 3.74387 7.38508V5.1828H0.904092C0.32841 6.3303 0 7.62849 0 9.00008C0 10.3717 0.32841 11.6699 0.904092 12.8174L3.74387 10.6151Z" fill="#FBBC05"/>
<path fill-rule="evenodd" clip-rule="evenodd" d="M8.50022 3.88075C9.74817 3.88075 10.8686 4.30961 11.7495 5.15189L14.1875 2.71393C12.7155 1.34234 10.7914 0.500061 8.50022 0.500061C5.17748 0.500061 2.30294 2.40484 0.904297 5.1828L3.74407 7.38507C4.41248 5.37598 6.28635 3.88075 8.50022 3.88075Z" fill="#EA4335"/>
</svg>
