<svg width="32" height="32" viewBox="0 0 32 32" fill="none" xmlns="http://www.w3.org/2000/svg">
<path d="M2 15.05H3.45V16.5H2V15.05ZM3.45 15.05H4.9V16.5H3.45V15.05ZM4.9 15.05H6.35V16.5H4.9V15.05ZM6.35 15.05H7.8V16.5H6.35V15.05ZM6.35 16.5H7.8V17.95H6.35V16.5ZM4.9 16.5H6.35V17.95H4.9V16.5ZM3.45 16.5H4.9V17.95H3.45V16.5ZM2 16.5H3.45V17.95H2V16.5ZM7.8 15.05H9.25V16.5H7.8V15.05ZM9.25 15.05H10.7V16.5H9.25V15.05ZM12.15 15.05H13.6V16.5H12.15V15.05ZM12.15 16.5H13.6V17.95H12.15V16.5ZM9.25 16.5H10.7V17.95H9.25V16.5ZM7.8 16.5H9.25V17.95H7.8V16.5ZM19.4 16.5H20.85V17.95H19.4V16.5ZM19.4 15.05H20.85V16.5H19.4V15.05ZM22.3 15.05H23.75V16.5H22.3V15.05ZM23.75 15.05H25.2V16.5H23.75V15.05ZM25.2 15.05H26.65V16.5H25.2V15.05ZM25.2 16.5H26.65V17.95H25.2V16.5ZM23.75 16.5H25.2V17.95H23.75V16.5ZM22.3 16.5H23.75V17.95H22.3V16.5ZM26.65 15.05H28.1V16.5H26.65V15.05ZM28.1 15.05H29.55V16.5H28.1V15.05ZM29.55 15.05H31V16.5H29.55V15.05ZM29.55 16.5H31V17.95H29.55V16.5ZM28.1 16.5H29.55V17.95H28.1V16.5ZM26.65 16.5H28.1V17.95H26.65V16.5ZM15.05 15.05H16.5V16.5H15.05V15.05ZM16.5 15.05H17.95V16.5H16.5V15.05ZM16.5 16.5H17.95V17.95H16.5V16.5ZM15.05 16.5H16.5V17.95H15.05V16.5ZM15.05 12.15H16.5V13.6H15.05V12.15ZM15.05 9.25H16.5V10.7H15.05V9.25ZM16.5 9.25H17.95V10.7H16.5V9.25ZM16.5 7.8H17.95V9.25H16.5V7.8ZM16.5 12.15H17.95V13.6H16.5V12.15ZM15.05 7.8H16.5V9.25H15.05V7.8ZM15.05 6.35H16.5V7.8H15.05V6.35ZM15.05 4.9H16.5V6.35H15.05V4.9ZM16.5 4.9H17.95V6.35H16.5V4.9ZM16.5 6.35H17.95V7.8H16.5V6.35ZM16.5 3.45H17.95V4.9H16.5V3.45ZM15.05 3.45H16.5V4.9H15.05V3.45ZM15.05 19.4H16.5V20.85H15.05V19.4ZM16.5 19.4H17.95V20.85H16.5V19.4ZM16.5 22.3H17.95V23.75H16.5V22.3ZM16.5 23.75H17.95V25.2H16.5V23.75ZM16.5 25.2H17.95V26.65H16.5V25.2ZM16.5 26.65H17.95V28.1H16.5V26.65ZM16.5 28.1H17.95V29.55H16.5V28.1ZM15.05 28.1H16.5V29.55H15.05V28.1ZM15.05 26.65H16.5V28.1H15.05V26.65ZM15.05 25.2H16.5V26.65H15.05V25.2ZM15.05 23.75H16.5V25.2H15.05V23.75ZM15.05 22.3H16.5V23.75H15.05V22.3ZM16.5 29.55H17.95V31H16.5V29.55ZM15.05 29.55H16.5V31H15.05V29.55ZM16.5 2H17.95V3.45H16.5V2ZM15.05 2H16.5V3.45H15.05V2ZM19.4 12.15H20.85V13.6H19.4V12.15ZM20.85 10.7H22.3V12.15H20.85V10.7ZM12.15 12.15H13.6V13.6H12.15V12.15ZM10.7 10.7H12.15V12.15H10.7V10.7ZM10.7 9.25H12.15V10.7H10.7V9.25ZM9.25 9.25H10.7V10.7H9.25V9.25ZM9.25 10.7H10.7V12.15H9.25V10.7ZM9.25 7.8H10.7V9.25H9.25V7.8ZM7.8 7.8H9.25V9.25H7.8V7.8ZM7.8 9.25H9.25V10.7H7.8V9.25ZM7.8 6.35H9.25V7.8H7.8V6.35ZM6.35 6.35H7.8V7.8H6.35V6.35ZM6.35 7.8H7.8V9.25H6.35V7.8ZM12.15 19.4H13.6V20.85H12.15V19.4ZM10.7 20.85H12.15V22.3H10.7V20.85ZM19.4 19.4H20.85V20.85H19.4V19.4ZM20.85 20.85H22.3V22.3H20.85V20.85ZM17.95 13.6H19.4V15.05H17.95V13.6ZM16.5 13.6H17.95V15.05H16.5V13.6ZM15.05 13.6H16.5V15.05H15.05V13.6ZM13.6 13.6H15.05V15.05H13.6V13.6ZM13.6 15.05H15.05V16.5H13.6V15.05ZM13.6 16.5H15.05V17.95H13.6V16.5ZM13.6 17.95H15.05V19.4H13.6V17.95ZM15.05 17.95H16.5V19.4H15.05V17.95ZM16.5 17.95H17.95V19.4H16.5V17.95ZM17.95 17.95H19.4V19.4H17.95V17.95ZM17.95 16.5H19.4V17.95H17.95V16.5ZM17.95 15.05H19.4V16.5H17.95V15.05ZM12.15 13.6H13.6V15.05H12.15V13.6ZM13.6 12.15H15.05V13.6H13.6V12.15ZM12.15 17.95H13.6V19.4H12.15V17.95ZM13.6 19.4H15.05V20.85H13.6V19.4ZM17.95 19.4H19.4V20.85H17.95V19.4ZM19.4 17.95H20.85V19.4H19.4V17.95ZM19.4 13.6H20.85V15.05H19.4V13.6ZM17.95 12.15H19.4V13.6H17.95V12.15ZM2 13.6H3.45V15.05H2V13.6ZM2 17.95H3.45V19.4H2V17.95ZM3.45 17.95H4.9V19.4H3.45V17.95ZM4.9 17.95H6.35V19.4H4.9V17.95ZM4.9 13.6H6.35V15.05H4.9V13.6ZM3.45 13.6H4.9V15.05H3.45V13.6ZM6.35 17.95H7.8V19.4H6.35V17.95ZM6.35 13.6H7.8V15.05H6.35V13.6ZM3.45 19.4H4.9V20.85H3.45V19.4ZM4.9 19.4H6.35V20.85H4.9V19.4ZM3.45 12.15H4.9V13.6H3.45V12.15ZM4.9 12.15H6.35V13.6H4.9V12.15ZM29.55 13.6H31V15.05H29.55V13.6ZM28.1 13.6H29.55V15.05H28.1V13.6ZM28.1 17.95H29.55V19.4H28.1V17.95ZM29.55 17.95H31V19.4H29.55V17.95ZM26.65 13.6H28.1V15.05H26.65V13.6ZM25.2 13.6H26.65V15.05H25.2V13.6ZM25.2 17.95H26.65V19.4H25.2V17.95ZM26.65 17.95H28.1V19.4H26.65V17.95ZM26.65 19.4H28.1V20.85H26.65V19.4ZM28.1 19.4H29.55V20.85H28.1V19.4ZM26.65 12.15H28.1V13.6H26.65V12.15ZM28.1 12.15H29.55V13.6H28.1V12.15ZM13.6 29.55H15.05V31H13.6V29.55ZM13.6 28.1H15.05V29.55H13.6V28.1ZM13.6 26.65H15.05V28.1H13.6V26.65ZM13.6 25.2H15.05V26.65H13.6V25.2ZM17.95 25.2H19.4V26.65H17.95V25.2ZM17.95 26.65H19.4V28.1H17.95V26.65ZM17.95 28.1H19.4V29.55H17.95V28.1ZM17.95 29.55H19.4V31H17.95V29.55ZM19.4 28.1H20.85V29.55H19.4V28.1ZM19.4 26.65H20.85V28.1H19.4V26.65ZM12.15 28.1H13.6V29.55H12.15V28.1ZM12.15 26.65H13.6V28.1H12.15V26.65ZM13.6 2H15.05V3.45H13.6V2ZM13.6 3.45H15.05V4.9H13.6V3.45ZM17.95 3.45H19.4V4.9H17.95V3.45ZM17.95 2H19.4V3.45H17.95V2ZM17.95 4.9H19.4V6.35H17.95V4.9ZM17.95 6.35H19.4V7.8H17.95V6.35ZM13.6 6.35H15.05V7.8H13.6V6.35ZM13.6 4.9H15.05V6.35H13.6V4.9ZM12.15 3.45H13.6V4.9H12.15V3.45ZM12.15 4.9H13.6V6.35H12.15V4.9ZM19.4 3.45H20.85V4.9H19.4V3.45ZM19.4 4.9H20.85V6.35H19.4V4.9ZM7.8 10.7H9.25V12.15H7.8V10.7ZM6.35 10.7H7.8V12.15H6.35V10.7ZM10.7 7.8H12.15V9.25H10.7V7.8ZM10.7 6.35H12.15V7.8H10.7V6.35ZM9.25 6.35H10.7V7.8H9.25V6.35ZM6.35 9.25H7.8V10.7H6.35V9.25ZM4.9 9.25H6.35V10.7H4.9V9.25ZM4.9 7.8H6.35V9.25H4.9V7.8ZM4.9 6.35H6.35V7.8H4.9V6.35ZM6.35 4.9H7.8V6.35H6.35V4.9ZM7.8 4.9H9.25V6.35H7.8V4.9ZM9.25 4.9H10.7V6.35H9.25V4.9ZM10.7 22.3H12.15V23.75H10.7V22.3ZM10.7 23.75H12.15V25.2H10.7V23.75ZM10.7 25.2H12.15V26.65H10.7V25.2ZM9.25 20.85H10.7V22.3H9.25V20.85ZM7.8 20.85H9.25V22.3H7.8V20.85ZM6.35 20.85H7.8V22.3H6.35V20.85ZM6.35 22.3H7.8V23.75H6.35V22.3ZM6.35 23.75H7.8V25.2H6.35V23.75ZM7.8 23.75H9.25V25.2H7.8V23.75ZM9.25 23.75H10.7V25.2H9.25V23.75ZM9.25 22.3H10.7V23.75H9.25V22.3ZM7.8 22.3H9.25V23.75H7.8V22.3ZM7.8 25.2H9.25V26.65H7.8V25.2ZM9.25 25.2H10.7V26.65H9.25V25.2ZM6.35 25.2H7.8V26.65H6.35V25.2ZM9.25 26.65H10.7V28.1H9.25V26.65ZM7.8 26.65H9.25V28.1H7.8V26.65ZM6.35 26.65H7.8V28.1H6.35V26.65ZM4.9 25.2H6.35V26.65H4.9V25.2ZM4.9 23.75H6.35V25.2H4.9V23.75ZM4.9 22.3H6.35V23.75H4.9V22.3ZM22.3 20.85H23.75V22.3H22.3V20.85ZM23.75 20.85H25.2V22.3H23.75V20.85ZM25.2 20.85H26.65V22.3H25.2V20.85ZM25.2 22.3H26.65V23.75H25.2V22.3ZM25.2 23.75H26.65V25.2H25.2V23.75ZM25.2 25.2H26.65V26.65H25.2V25.2ZM23.75 25.2H25.2V26.65H23.75V25.2ZM22.3 25.2H23.75V26.65H22.3V25.2ZM20.85 25.2H22.3V26.65H20.85V25.2ZM20.85 23.75H22.3V25.2H20.85V23.75ZM20.85 22.3H22.3V23.75H20.85V22.3ZM22.3 22.3H23.75V23.75H22.3V22.3ZM23.75 22.3H25.2V23.75H23.75V22.3ZM23.75 23.75H25.2V25.2H23.75V23.75ZM22.3 23.75H23.75V25.2H22.3V23.75ZM26.65 22.3H28.1V23.75H26.65V22.3ZM26.65 23.75H28.1V25.2H26.65V23.75ZM26.65 25.2H28.1V26.65H26.65V25.2ZM25.2 26.65H26.65V28.1H25.2V26.65ZM23.75 26.65H25.2V28.1H23.75V26.65ZM22.3 26.65H23.75V28.1H22.3V26.65ZM23.75 10.7H25.2V12.15H23.75V10.7ZM25.2 10.7H26.65V12.15H25.2V10.7ZM22.3 10.7H23.75V12.15H22.3V10.7ZM22.3 9.25H23.75V10.7H22.3V9.25ZM20.85 9.25H22.3V10.7H20.85V9.25ZM20.85 7.8H22.3V9.25H20.85V7.8ZM20.85 6.35H22.3V7.8H20.85V6.35ZM22.3 6.35H23.75V7.8H22.3V6.35ZM23.75 6.35H25.2V7.8H23.75V6.35ZM25.2 6.35H26.65V7.8H25.2V6.35ZM25.2 7.8H26.65V9.25H25.2V7.8ZM25.2 9.25H26.65V10.7H25.2V9.25ZM23.75 9.25H25.2V10.7H23.75V9.25ZM23.75 7.8H25.2V9.25H23.75V7.8ZM22.3 7.8H23.75V9.25H22.3V7.8ZM22.3 4.9H23.75V6.35H22.3V4.9ZM23.75 4.9H25.2V6.35H23.75V4.9ZM25.2 4.9H26.65V6.35H25.2V4.9ZM26.65 6.35H28.1V7.8H26.65V6.35ZM26.65 7.8H28.1V9.25H26.65V7.8ZM26.65 9.25H28.1V10.7H26.65V9.25Z" fill="#367AFF"/>
</svg>
